HIERARCHY
ROOT Hips
{
	OFFSET 2.066509 106.571495 -2.792651
	CHANNELS 6 Xposition Yposition Zposition Xrotation Yrotation Zrotation
	JOINT Chest
	{
		OFFSET 0.613052 13.609703 0.744526
		CHANNELS 3 Xrotation Yrotation Zrotation
		JOINT Chest2
		{
			OFFSET -0.344794 21.232697 2.849566
			CHANNELS 3 Xrotation Yrotation Zrotation
			JOINT Chest3
			{
				OFFSET -0.013287 14.892136 -1.021715
				CHANNELS 3 Xrotation Yrotation Zrotation
				JOINT Neck
				{
					OFFSET 0.637728 17.240662 0.984392
					CHANNELS 3 Xrotation Yrotation Zrotation
					JOINT Head
					{
						OFFSET 0.345502 10.209473 2.339883
						CHANNELS 3 Xrotation Yrotation Zrotation
						End Site
						{
							OFFSET 0.355002 10.225098 2.269118
						}
					}
				}
				JOINT LeftCollar
				{
					OFFSET 4.802065 12.913513 3.462059
					CHANNELS 3 Xrotation Yrotation Zrotation
					JOINT LeftUpArm
					{
						OFFSET 15.028656 6.748871 -6.090284
						CHANNELS 3 Xrotation Yrotation Zrotation
						JOINT LeftLowArm
						{
							OFFSET 12.883760 25.780457 17.581360
							CHANNELS 3 Xrotation Yrotation Zrotation
							JOINT LeftHand
							{
								OFFSET 2.804321 27.389404 11.954195
								CHANNELS 3 Xrotation Yrotation Zrotation
								End Site
								{
									OFFSET 0.612907 5.986115 2.612646
								}
							}
						}
					}
				}
				JOINT RightCollar
				{
					OFFSET -3.602611 13.205139 3.801842
					CHANNELS 3 Xrotation Yrotation Zrotation
					JOINT RightUpArm
					{
						OFFSET -15.003604 7.504944 -5.202301
						CHANNELS 3 Xrotation Yrotation Zrotation
						JOINT RightLowArm
						{
							OFFSET -9.605005 26.691864 18.303606
							CHANNELS 3 Xrotation Yrotation Zrotation
							JOINT RightHand
							{
								OFFSET 1.617306 25.818878 15.222502
								CHANNELS 3 Xrotation Yrotation Zrotation
								End Site
								{
									OFFSET 0.353487 5.642975 3.327040
								}
							}
						}
					}
				}
			}
		}
	}
	JOINT LeftUpLeg
	{
		OFFSET 10.005285 -0.467728 0.307630
		CHANNELS 3 Xrotation Yrotation Zrotation
		JOINT LeftLowLeg
		{
			OFFSET 23.587173 -40.337402 7.779976
			CHANNELS 3 Xrotation Yrotation Zrotation
			JOINT LeftFoot
			{
				OFFSET 12.738689 -41.277878 -11.594391
				CHANNELS 3 Xrotation Yrotation Zrotation
				JOINT LeftToe
				{
					OFFSET 10.611736 -17.107695 12.420835
					CHANNELS 3 Xrotation Yrotation Zrotation
					End Site
					{
						OFFSET 9.203865 -4.018371 21.417295
					}
				}
			}
		}
	}
	JOINT RightUpLeg
	{
		OFFSET -10.005297 0.467529 -0.307641
		CHANNELS 3 Xrotation Yrotation Zrotation
		JOINT RightLowLeg
		{
			OFFSET -23.301533 -40.622681 7.130729
			CHANNELS 3 Xrotation Yrotation Zrotation
			JOINT RightFoot
			{
				OFFSET -8.844896 -40.630760 -16.476889
				CHANNELS 3 Xrotation Yrotation Zrotation
				JOINT RightToe
				{
					OFFSET -8.946152 -18.734221 11.338068
					CHANNELS 3 Xrotation Yrotation Zrotation
					End Site
					{
						OFFSET -10.012627 -5.817798 20.626602
					}
				}
			}
		}
	}
}
MOTION
Frames: 13
Frame Time: 0.033333
-2.878692 105.834770 -1.111723 2.257749 0.008775 1.591521 -3.469616 -0.985694 -0.621032 6.861828 1.462775 0.775699 -3.021509 -0.574538 -0.899388 -8.199336 3.199373 3.828200 -0.000000 0.000001 -0.000000 13.148059 3.686332 -53.184385 37.850432 -1.274814 -76.709499 34.856368 16.620845 -1.390307 -0.000001 -0.000001 -0.000003 15.331217 -1.964888 53.771586 46.097090 -2.494844 75.882855 26.036403 -17.437709 -3.470896 0.000003 -0.000001 -0.000000 9.756704 -3.276012 -28.543374 -12.442626 -1.914249 10.999407 -10.663268 -18.880535 -4.417586 0.000000 0.000000 -0.000002 3.769615 3.051464 25.447065 -12.597827 1.694410 -16.252030 -4.406090 11.932272 1.338880 -0.000001 0.000001 -0.000001 
-2.879714 105.833000 -1.114627 2.261660 0.137664 1.653974 -3.475514 -0.975677 -0.631733 6.656179 1.433871 0.842623 -2.785424 -0.306095 -1.033522 -8.015158 2.968162 3.971034 0.000000 0.000001 -0.000000 13.218914 2.844826 -53.074975 37.799674 -1.069754 -76.837033 34.653443 16.512648 -1.203357 -0.000002 -0.000005 -0.000003 15.250352 -2.339624 53.849908 46.065644 -2.724441 76.053904 26.219185 -17.367733 -3.144840 0.000002 0.000000 0.000002 9.629861 -3.309998 -28.635532 -12.145657 -1.842693 11.071209 -10.588755 -19.090672 -4.609537 -0.000002 0.000001 0.000001 3.814606 3.055428 25.341470 -12.533967 1.682379 -16.179789 -4.086791 11.719177 1.272324 -0.000002 0.000004 0.000000 
-2.880151 105.838669 -1.117917 1.846057 0.312514 1.721655 -2.821584 -1.011904 -0.592095 6.296747 1.456318 0.785345 -2.712896 -0.624193 -1.044537 -8.092633 3.163149 3.798656 -0.000001 0.000000 -0.000001 13.086055 3.353800 -53.408104 37.623028 -0.818295 -76.981116 34.872347 16.153963 -1.262383 -0.000003 -0.000004 -0.000000 15.251643 -1.746040 53.760795 45.862057 -3.071613 76.417242 26.205551 -17.031679 -3.281302 -0.000001 -0.000002 0.000002 9.994460 -3.288076 -28.709358 -11.865265 -1.778354 11.134521 -10.877822 -19.342169 -4.773168 -0.000001 -0.000000 -0.000001 4.180459 2.971647 25.211253 -12.645457 1.786374 -15.970087 -4.222710 11.538812 1.201380 -0.000002 0.000001 0.000000 
-2.880472 105.841354 -1.121174 1.958437 0.157927 1.745180 -2.954040 -1.016909 -0.564581 6.812555 1.456607 0.761644 -3.085139 0.490169 -1.043053 -8.059946 2.744685 4.211900 -0.000000 0.000001 -0.000000 13.263181 1.320970 -52.884147 37.609723 -0.746530 -77.184894 34.700373 15.808659 -0.302413 -0.000003 -0.000007 0.000000 15.008898 -3.241401 54.064649 45.859161 -3.156465 76.516109 26.330968 -17.057120 -2.919904 -0.000000 -0.000000 0.000004 9.752460 -3.267726 -28.742560 -11.767056 -1.729519 11.145673 -11.014750 -19.475957 -4.797339 -0.000000 -0.000002 -0.000001 4.037212 2.946128 25.202020 -12.667080 1.752283 -16.021682 -4.173587 11.825911 1.318129 -0.000000 0.000001 -0.000001 
-2.886065 105.844238 -1.123152 1.873036 0.101985 1.709545 -2.653206 -1.048819 -0.533497 6.828459 1.530116 0.648868 -3.232375 0.423085 -0.912228 -7.960459 2.789450 4.210570 0.000000 -0.000000 -0.000000 13.299021 1.473132 -52.883416 37.646814 -0.804864 -77.318909 34.676017 15.828159 -0.567749 -0.000002 0.000002 0.000000 15.034008 -2.973608 53.947645 45.869423 -3.194632 76.553839 26.228755 -16.919716 -2.813899 -0.000004 0.000004 0.000004 9.789067 -3.285867 -28.694933 -11.567901 -1.726665 11.163644 -10.873036 -19.366481 -4.757730 -0.000002 -0.000001 0.000002 3.874207 2.982080 25.288480 -12.146785 1.581887 -16.016288 -4.398321 11.674635 1.214660 -0.000003 0.000002 0.000001 
-2.898852 105.854988 -1.133849 1.595632 0.206686 1.789560 -2.174992 -1.076231 -0.617909 7.150377 1.558495 0.651390 -3.817065 0.568040 -0.942791 -7.972311 2.646725 4.389953 0.000001 -0.000000 -0.000000 13.515070 1.061638 -52.902827 37.813771 -1.059021 -76.924404 34.505375 16.041835 -0.176747 -0.000001 -0.000006 -0.000001 15.099749 -3.401952 54.147441 46.037200 -3.018070 76.252601 25.928532 -17.026927 -2.835305 -0.000001 -0.000003 0.000003 10.005174 -3.348017 -28.718910 -11.810951 -1.934819 11.140880 -10.755966 -19.192830 -4.650608 -0.000002 -0.000001 0.000001 3.883735 3.041653 25.215947 -11.870745 1.519851 -15.960332 -4.739496 11.675410 1.191197 -0.000002 0.000002 0.000001 
-2.911096 105.870033 -1.138613 1.868832 0.380686 1.837669 -2.572798 -1.037732 -0.616409 6.819484 1.551652 0.660125 -3.274797 0.187472 -0.996720 -8.021834 2.694725 4.273706 0.000000 0.000001 -0.000000 13.324574 1.376560 -52.867737 37.686132 -0.955305 -77.170892 34.706647 15.893908 -0.585162 -0.000000 -0.000005 0.000001 15.018748 -2.940657 53.772522 45.925646 -3.055927 76.720735 25.765873 -16.870311 -2.977579 -0.000000 -0.000002 0.000001 9.776486 -3.375122 -28.774057 -11.703775 -1.878610 11.255300 -10.811773 -19.457525 -4.857438 -0.000001 -0.000002 -0.000000 3.394514 3.091279 25.147542 -11.773310 1.461626 -15.856267 -4.709732 11.397649 1.053608 -0.000002 0.000003 -0.000000 
-2.925634 105.880547 -1.139997 1.827106 0.296619 1.845289 -2.479524 -1.036256 -0.612442 6.778845 1.560722 0.640682 -3.276602 0.565185 -1.001915 -7.712732 2.554855 4.307412 -0.000000 0.000000 -0.000000 13.372780 0.567221 -52.555683 37.691989 -0.887669 -77.354085 34.538463 15.874027 -0.451294 -0.000003 -0.000002 -0.000001 14.933889 -3.374555 53.939407 45.930638 -3.116038 76.819131 25.549658 -16.914236 -2.926399 0.000001 -0.000001 0.000004 9.878402 -3.380888 -28.783360 -11.627163 -1.877295 11.290613 -10.909994 -19.407525 -4.795310 -0.000000 -0.000000 -0.000000 3.456560 3.102368 25.173716 -11.797132 1.514718 -15.899473 -4.484475 11.419715 1.097175 -0.000002 0.000001 0.000001 
-2.944210 105.889595 -1.145113 1.821297 0.028979 1.931362 -2.444798 -0.998743 -0.744921 6.935754 1.613571 0.548723 -3.395705 0.487299 -0.867115 -7.858533 2.757319 4.178090 0.000000 -0.000001 -0.000000 13.202483 1.066097 -52.625296 37.601151 -0.778025 -77.550043 34.779187 15.659090 -0.576261 0.000001 -0.000002 -0.000002 14.884534 -3.039107 53.849594 45.810816 -3.209874 76.916338 25.601938 -16.608887 -3.295180 0.000002 -0.000004 0.000001 9.868496 -3.417736 -28.835696 -11.658973 -1.821813 11.216620 -10.972736 -19.190661 -4.585371 -0.000000 -0.000001 -0.000000 3.435541 3.120882 25.133780 -11.651168 1.474236 -15.928303 -4.493459 11.554477 1.196002 -0.000001 0.000001 -0.000000 
-2.970269 105.898521 -1.147262 1.669708 0.100406 1.920617 -2.175602 -1.008981 -0.786153 5.890276 1.576812 0.641434 -2.458048 0.632862 -0.885277 -7.597556 2.670795 4.263928 0.000000 -0.000001 -0.000001 13.194386 0.546779 -52.452397 37.566713 -0.582465 -77.981725 34.641046 15.482731 -0.201123 -0.000001 -0.000003 0.000002 14.751008 -3.371731 53.836296 45.739345 -3.388018 77.184594 25.854438 -16.448132 -3.424723 -0.000003 -0.000001 0.000001 9.904297 -3.369824 -28.769313 -11.761962 -1.785992 11.199502 -10.594773 -19.159743 -4.628302 -0.000002 -0.000001 0.000001 3.940685 3.008439 25.212410 -12.115660 1.573620 -15.968313 -4.354023 11.606916 1.222393 -0.000001 0.000002 0.000001 
-2.995998 105.907776 -1.143155 1.481770 0.300051 1.969884 -2.168241 -0.999903 -0.802076 6.005157 1.496903 0.727528 -2.643917 0.203072 -1.022266 -6.879373 2.706793 3.999470 0.000000 0.000000 0.000000 13.065774 1.591226 -52.729890 37.316718 -0.456783 -78.065592 34.863423 15.151380 -1.051660 -0.000001 -0.000003 0.000002 14.633856 -3.607158 53.780838 45.523621 -3.625145 77.532728 26.147050 -16.347358 -2.158668 0.000003 0.000000 0.000003 9.928624 -3.390873 -28.790180 -11.466017 -1.782386 11.163875 -10.685702 -19.004248 -4.540527 -0.000003 -0.000003 0.000002 4.275137 2.975474 25.162255 -12.041268 1.619058 -15.980693 -4.221198 11.707605 1.264293 -0.000001 0.000000 0.000002 
-3.029740 105.919510 -1.149481 1.555473 0.221876 2.013838 -2.086090 -0.991651 -0.912046 6.114283 1.457201 0.750016 -2.821640 0.388391 -1.016694 -6.884696 2.577693 4.042904 0.000001 0.000000 -0.000000 13.179767 0.643264 -52.483139 37.294052 -0.517600 -77.838174 34.701603 15.162176 -0.401959 0.000001 -0.000004 -0.000001 14.669476 -3.435265 53.664110 45.545576 -3.416330 77.400489 25.975886 -16.426714 -2.396916 0.000001 0.000001 0.000005 9.721599 -3.308132 -28.764351 -11.279532 -1.690301 11.107114 -10.670398 -19.070023 -4.638308 -0.000002 -0.000001 0.000002 3.693571 2.983748 25.223728 -11.523056 1.410158 -16.057544 -4.299753 11.726850 1.191488 -0.000001 0.000000 0.000001 
-3.065652 105.928688 -1.149504 1.576326 -0.063047 2.130558 -2.267546 -0.967883 -1.011440 6.317294 1.527447 0.571475 -2.743326 -0.058519 -0.894383 -7.194362 2.857811 3.803404 -0.000000 0.000001 -0.000000 13.050650 1.784669 -52.731649 37.332926 -0.685413 -77.669045 34.818843 15.343472 -0.568902 -0.000000 -0.000004 0.000001 14.785573 -2.508798 53.159632 45.637664 -3.133620 77.425119 25.669671 -16.537090 -2.819045 0.000002 -0.000004 0.000001 9.608163 -3.272568 -28.851918 -11.080243 -1.712158 11.123850 -10.543506 -19.125903 -4.733688 -0.000001 -0.000001 -0.000001 3.922402 2.916485 25.161338 -11.598967 1.478885 -16.082334 -4.474688 12.156192 1.338020 -0.000001 0.000001 0.000001 
